<mxfile host="app.diagrams.net" modified="2023-12-23T21:48:00.342Z" agent="Mozilla/5.0 (Windows NT 10.0; Win64; x64) AppleWebKit/537.36 (KHTML, like Gecko) Chrome/120.0.0.0 Safari/537.36" etag="SPty_9qWrFQjfM2Vhuss" version="22.1.11" type="device">
  <diagram name="Page-1" id="h35B4o4JfX450mikH00H">
    <mxGraphModel dx="1283" dy="770" grid="0" gridSize="10" guides="1" tooltips="1" connect="1" arrows="1" fold="1" page="1" pageScale="1" pageWidth="827" pageHeight="1169" math="0" shadow="0">
      <root>
        <mxCell id="0" />
        <mxCell id="1" parent="0" />
        <mxCell id="qe84-1vlQVu-YHFjFX5S-1" value="Гість" style="shape=umlActor;verticalLabelPosition=bottom;verticalAlign=top;html=1;outlineConnect=0;" vertex="1" parent="1">
          <mxGeometry x="60" y="530" width="30" height="60" as="geometry" />
        </mxCell>
        <mxCell id="qe84-1vlQVu-YHFjFX5S-2" value="Користувач" style="shape=umlActor;verticalLabelPosition=bottom;verticalAlign=top;html=1;outlineConnect=0;" vertex="1" parent="1">
          <mxGeometry x="60" y="100" width="30" height="60" as="geometry" />
        </mxCell>
        <mxCell id="qe84-1vlQVu-YHFjFX5S-6" value="Залогінитись" style="ellipse;whiteSpace=wrap;html=1;fontSize=11;" vertex="1" parent="1">
          <mxGeometry x="200" y="610" width="120" height="60" as="geometry" />
        </mxCell>
        <mxCell id="qe84-1vlQVu-YHFjFX5S-7" value="Зареєструватись" style="ellipse;whiteSpace=wrap;html=1;fontSize=11;" vertex="1" parent="1">
          <mxGeometry x="200" y="540" width="120" height="60" as="geometry" />
        </mxCell>
        <mxCell id="qe84-1vlQVu-YHFjFX5S-8" value="Переглянути вітальну сторінку" style="ellipse;whiteSpace=wrap;html=1;fontSize=11;" vertex="1" parent="1">
          <mxGeometry x="200" y="470" width="120" height="60" as="geometry" />
        </mxCell>
        <mxCell id="qe84-1vlQVu-YHFjFX5S-9" value="&lt;font style=&quot;font-size: 11px;&quot;&gt;Пошук публікацій за ключовим словом&lt;/font&gt;" style="ellipse;whiteSpace=wrap;html=1;" vertex="1" parent="1">
          <mxGeometry x="200" y="390" width="120" height="60" as="geometry" />
        </mxCell>
        <mxCell id="qe84-1vlQVu-YHFjFX5S-10" value="&lt;font style=&quot;font-size: 11px;&quot;&gt;Пошук публікацій за автором&lt;/font&gt;" style="ellipse;whiteSpace=wrap;html=1;" vertex="1" parent="1">
          <mxGeometry x="200" y="320" width="120" height="60" as="geometry" />
        </mxCell>
        <mxCell id="qe84-1vlQVu-YHFjFX5S-11" value="&lt;font style=&quot;font-size: 11px;&quot;&gt;Пошук публікацій за предметною областю&lt;/font&gt;" style="ellipse;whiteSpace=wrap;html=1;" vertex="1" parent="1">
          <mxGeometry x="200" y="250" width="120" height="60" as="geometry" />
        </mxCell>
        <mxCell id="qe84-1vlQVu-YHFjFX5S-13" value="&lt;font style=&quot;font-size: 11px;&quot;&gt;Перегляд збережених публікацій&lt;/font&gt;" style="ellipse;whiteSpace=wrap;html=1;" vertex="1" parent="1">
          <mxGeometry x="200" y="180" width="120" height="60" as="geometry" />
        </mxCell>
        <mxCell id="qe84-1vlQVu-YHFjFX5S-15" value="&lt;font style=&quot;font-size: 11px;&quot;&gt;Сортування за ключовими словами&lt;/font&gt;" style="ellipse;whiteSpace=wrap;html=1;" vertex="1" parent="1">
          <mxGeometry x="447.5" y="180" width="120" height="60" as="geometry" />
        </mxCell>
        <mxCell id="qe84-1vlQVu-YHFjFX5S-16" value="&lt;font style=&quot;font-size: 11px;&quot;&gt;Сортування за роком та назвою&lt;/font&gt;" style="ellipse;whiteSpace=wrap;html=1;" vertex="1" parent="1">
          <mxGeometry x="447.5" y="250" width="120" height="60" as="geometry" />
        </mxCell>
        <mxCell id="qe84-1vlQVu-YHFjFX5S-17" value="&lt;span style=&quot;font-size: 11px;&quot;&gt;Фільтрація за мовою публікації&lt;/span&gt;" style="ellipse;whiteSpace=wrap;html=1;" vertex="1" parent="1">
          <mxGeometry x="447.5" y="320" width="120" height="60" as="geometry" />
        </mxCell>
        <mxCell id="qe84-1vlQVu-YHFjFX5S-18" value="&lt;span style=&quot;font-size: 11px;&quot;&gt;Фільтрація за роками випуску&lt;/span&gt;" style="ellipse;whiteSpace=wrap;html=1;" vertex="1" parent="1">
          <mxGeometry x="447.5" y="390" width="120" height="60" as="geometry" />
        </mxCell>
        <mxCell id="qe84-1vlQVu-YHFjFX5S-19" value="&lt;span style=&quot;font-size: 11px;&quot;&gt;Видалити збережену публікацію&lt;/span&gt;" style="ellipse;whiteSpace=wrap;html=1;" vertex="1" parent="1">
          <mxGeometry x="630" y="160" width="117.5" height="60" as="geometry" />
        </mxCell>
        <mxCell id="qe84-1vlQVu-YHFjFX5S-20" value="&lt;font style=&quot;font-size: 11px;&quot;&gt;Редагування паролю&lt;/font&gt;" style="ellipse;whiteSpace=wrap;html=1;" vertex="1" parent="1">
          <mxGeometry x="200" y="110" width="120" height="60" as="geometry" />
        </mxCell>
        <mxCell id="qe84-1vlQVu-YHFjFX5S-21" value="&lt;font style=&quot;font-size: 11px;&quot;&gt;Вийти з акаунту&lt;/font&gt;" style="ellipse;whiteSpace=wrap;html=1;" vertex="1" parent="1">
          <mxGeometry x="200" y="30" width="120" height="60" as="geometry" />
        </mxCell>
        <mxCell id="qe84-1vlQVu-YHFjFX5S-22" value="&lt;span style=&quot;font-size: 11px;&quot;&gt;Зберегти публікацію&lt;/span&gt;" style="ellipse;whiteSpace=wrap;html=1;" vertex="1" parent="1">
          <mxGeometry x="630" y="60" width="117.5" height="60" as="geometry" />
        </mxCell>
        <mxCell id="qe84-1vlQVu-YHFjFX5S-25" value="" style="endArrow=none;html=1;rounded=0;" edge="1" parent="1">
          <mxGeometry width="50" height="50" relative="1" as="geometry">
            <mxPoint x="160" y="60" as="sourcePoint" />
            <mxPoint x="160" y="480" as="targetPoint" />
          </mxGeometry>
        </mxCell>
        <mxCell id="qe84-1vlQVu-YHFjFX5S-29" value="" style="endArrow=classic;html=1;rounded=0;entryX=0;entryY=0;entryDx=0;entryDy=0;" edge="1" parent="1" target="qe84-1vlQVu-YHFjFX5S-11">
          <mxGeometry width="50" height="50" relative="1" as="geometry">
            <mxPoint x="160" y="260.5" as="sourcePoint" />
            <mxPoint x="200" y="260" as="targetPoint" />
          </mxGeometry>
        </mxCell>
        <mxCell id="qe84-1vlQVu-YHFjFX5S-30" value="" style="endArrow=classic;html=1;rounded=0;entryX=0;entryY=0;entryDx=0;entryDy=0;" edge="1" parent="1" target="qe84-1vlQVu-YHFjFX5S-10">
          <mxGeometry width="50" height="50" relative="1" as="geometry">
            <mxPoint x="160" y="330" as="sourcePoint" />
            <mxPoint x="200" y="330" as="targetPoint" />
          </mxGeometry>
        </mxCell>
        <mxCell id="qe84-1vlQVu-YHFjFX5S-31" value="" style="endArrow=classic;html=1;rounded=0;entryX=0;entryY=0;entryDx=0;entryDy=0;" edge="1" parent="1" target="qe84-1vlQVu-YHFjFX5S-9">
          <mxGeometry width="50" height="50" relative="1" as="geometry">
            <mxPoint x="160" y="400" as="sourcePoint" />
            <mxPoint x="200" y="400" as="targetPoint" />
          </mxGeometry>
        </mxCell>
        <mxCell id="qe84-1vlQVu-YHFjFX5S-32" value="" style="endArrow=classic;html=1;rounded=0;entryX=0.092;entryY=0.133;entryDx=0;entryDy=0;entryPerimeter=0;" edge="1" parent="1" target="qe84-1vlQVu-YHFjFX5S-8">
          <mxGeometry width="50" height="50" relative="1" as="geometry">
            <mxPoint x="160" y="480" as="sourcePoint" />
            <mxPoint x="200" y="480" as="targetPoint" />
          </mxGeometry>
        </mxCell>
        <mxCell id="qe84-1vlQVu-YHFjFX5S-33" value="" style="endArrow=none;html=1;rounded=0;" edge="1" parent="1">
          <mxGeometry width="50" height="50" relative="1" as="geometry">
            <mxPoint x="100" y="139" as="sourcePoint" />
            <mxPoint x="160" y="139" as="targetPoint" />
          </mxGeometry>
        </mxCell>
        <mxCell id="qe84-1vlQVu-YHFjFX5S-34" value="" style="endArrow=classic;html=1;rounded=0;" edge="1" parent="1">
          <mxGeometry width="50" height="50" relative="1" as="geometry">
            <mxPoint x="160" y="139" as="sourcePoint" />
            <mxPoint x="200" y="139" as="targetPoint" />
          </mxGeometry>
        </mxCell>
        <mxCell id="qe84-1vlQVu-YHFjFX5S-35" value="" style="endArrow=none;html=1;rounded=0;" edge="1" parent="1">
          <mxGeometry width="50" height="50" relative="1" as="geometry">
            <mxPoint x="130" y="280" as="sourcePoint" />
            <mxPoint x="130" y="640" as="targetPoint" />
          </mxGeometry>
        </mxCell>
        <mxCell id="qe84-1vlQVu-YHFjFX5S-36" value="" style="endArrow=classic;html=1;rounded=0;" edge="1" parent="1" target="qe84-1vlQVu-YHFjFX5S-6">
          <mxGeometry width="50" height="50" relative="1" as="geometry">
            <mxPoint x="130" y="641" as="sourcePoint" />
            <mxPoint x="181" y="639" as="targetPoint" />
          </mxGeometry>
        </mxCell>
        <mxCell id="qe84-1vlQVu-YHFjFX5S-37" value="" style="endArrow=classic;html=1;rounded=0;" edge="1" parent="1">
          <mxGeometry width="50" height="50" relative="1" as="geometry">
            <mxPoint x="97" y="570" as="sourcePoint" />
            <mxPoint x="200" y="569.5" as="targetPoint" />
          </mxGeometry>
        </mxCell>
        <mxCell id="qe84-1vlQVu-YHFjFX5S-38" value="" style="endArrow=classic;html=1;rounded=0;" edge="1" parent="1">
          <mxGeometry width="50" height="50" relative="1" as="geometry">
            <mxPoint x="130" y="500.5" as="sourcePoint" />
            <mxPoint x="200" y="499.5" as="targetPoint" />
          </mxGeometry>
        </mxCell>
        <mxCell id="qe84-1vlQVu-YHFjFX5S-39" value="" style="endArrow=classic;html=1;rounded=0;" edge="1" parent="1">
          <mxGeometry width="50" height="50" relative="1" as="geometry">
            <mxPoint x="130" y="420.5" as="sourcePoint" />
            <mxPoint x="200" y="419.5" as="targetPoint" />
          </mxGeometry>
        </mxCell>
        <mxCell id="qe84-1vlQVu-YHFjFX5S-40" value="" style="endArrow=classic;html=1;rounded=0;" edge="1" parent="1">
          <mxGeometry width="50" height="50" relative="1" as="geometry">
            <mxPoint x="130" y="350.5" as="sourcePoint" />
            <mxPoint x="200" y="349.5" as="targetPoint" />
          </mxGeometry>
        </mxCell>
        <mxCell id="qe84-1vlQVu-YHFjFX5S-41" value="" style="endArrow=classic;html=1;rounded=0;" edge="1" parent="1">
          <mxGeometry width="50" height="50" relative="1" as="geometry">
            <mxPoint x="130" y="280.5" as="sourcePoint" />
            <mxPoint x="200" y="279.5" as="targetPoint" />
          </mxGeometry>
        </mxCell>
        <mxCell id="qe84-1vlQVu-YHFjFX5S-46" value="" style="endArrow=none;dashed=1;html=1;dashPattern=1 3;strokeWidth=2;rounded=0;" edge="1" parent="1">
          <mxGeometry width="50" height="50" relative="1" as="geometry">
            <mxPoint x="390" y="420" as="sourcePoint" />
            <mxPoint x="390" y="140" as="targetPoint" />
          </mxGeometry>
        </mxCell>
        <mxCell id="qe84-1vlQVu-YHFjFX5S-47" value="" style="endArrow=none;dashed=1;html=1;dashPattern=1 3;strokeWidth=2;rounded=0;exitX=1;exitY=0.5;exitDx=0;exitDy=0;" edge="1" parent="1" source="qe84-1vlQVu-YHFjFX5S-9">
          <mxGeometry width="50" height="50" relative="1" as="geometry">
            <mxPoint x="330" y="420" as="sourcePoint" />
            <mxPoint x="400" y="420" as="targetPoint" />
          </mxGeometry>
        </mxCell>
        <mxCell id="qe84-1vlQVu-YHFjFX5S-48" value="" style="endArrow=none;dashed=1;html=1;dashPattern=1 3;strokeWidth=2;rounded=0;exitX=1;exitY=0.5;exitDx=0;exitDy=0;" edge="1" parent="1" source="qe84-1vlQVu-YHFjFX5S-10">
          <mxGeometry width="50" height="50" relative="1" as="geometry">
            <mxPoint x="330" y="420" as="sourcePoint" />
            <mxPoint x="400" y="350" as="targetPoint" />
          </mxGeometry>
        </mxCell>
        <mxCell id="qe84-1vlQVu-YHFjFX5S-49" value="" style="endArrow=none;dashed=1;html=1;dashPattern=1 3;strokeWidth=2;rounded=0;exitX=1;exitY=0.5;exitDx=0;exitDy=0;" edge="1" parent="1" source="qe84-1vlQVu-YHFjFX5S-11">
          <mxGeometry width="50" height="50" relative="1" as="geometry">
            <mxPoint x="330" y="420" as="sourcePoint" />
            <mxPoint x="390" y="280" as="targetPoint" />
          </mxGeometry>
        </mxCell>
        <mxCell id="qe84-1vlQVu-YHFjFX5S-50" value="" style="endArrow=none;dashed=1;html=1;dashPattern=1 3;strokeWidth=2;rounded=0;exitX=1;exitY=0.5;exitDx=0;exitDy=0;" edge="1" parent="1" source="qe84-1vlQVu-YHFjFX5S-13">
          <mxGeometry width="50" height="50" relative="1" as="geometry">
            <mxPoint x="330" y="420" as="sourcePoint" />
            <mxPoint x="390" y="210" as="targetPoint" />
          </mxGeometry>
        </mxCell>
        <mxCell id="qe84-1vlQVu-YHFjFX5S-53" value="" style="endArrow=openThin;dashed=1;html=1;dashPattern=1 3;strokeWidth=2;rounded=0;exitX=1;exitY=0.5;exitDx=0;exitDy=0;endFill=0;" edge="1" parent="1">
          <mxGeometry width="50" height="50" relative="1" as="geometry">
            <mxPoint x="390" y="419.5" as="sourcePoint" />
            <mxPoint x="450" y="420" as="targetPoint" />
          </mxGeometry>
        </mxCell>
        <mxCell id="qe84-1vlQVu-YHFjFX5S-54" value="" style="endArrow=openThin;dashed=1;html=1;dashPattern=1 3;strokeWidth=2;rounded=0;exitX=1;exitY=0.5;exitDx=0;exitDy=0;endFill=0;" edge="1" parent="1">
          <mxGeometry width="50" height="50" relative="1" as="geometry">
            <mxPoint x="390" y="349.5" as="sourcePoint" />
            <mxPoint x="450" y="350" as="targetPoint" />
          </mxGeometry>
        </mxCell>
        <mxCell id="qe84-1vlQVu-YHFjFX5S-55" value="" style="endArrow=openThin;dashed=1;html=1;dashPattern=1 3;strokeWidth=2;rounded=0;exitX=1;exitY=0.5;exitDx=0;exitDy=0;endFill=0;" edge="1" parent="1">
          <mxGeometry width="50" height="50" relative="1" as="geometry">
            <mxPoint x="390" y="139.5" as="sourcePoint" />
            <mxPoint x="450" y="140" as="targetPoint" />
          </mxGeometry>
        </mxCell>
        <mxCell id="qe84-1vlQVu-YHFjFX5S-56" value="" style="endArrow=openThin;dashed=1;html=1;dashPattern=1 3;strokeWidth=2;rounded=0;exitX=1;exitY=0.5;exitDx=0;exitDy=0;endFill=0;" edge="1" parent="1">
          <mxGeometry width="50" height="50" relative="1" as="geometry">
            <mxPoint x="390" y="209.5" as="sourcePoint" />
            <mxPoint x="450" y="210" as="targetPoint" />
          </mxGeometry>
        </mxCell>
        <mxCell id="qe84-1vlQVu-YHFjFX5S-58" value="" style="endArrow=openThin;dashed=1;html=1;dashPattern=1 3;strokeWidth=2;rounded=0;exitX=1;exitY=0.5;exitDx=0;exitDy=0;endFill=0;" edge="1" parent="1">
          <mxGeometry width="50" height="50" relative="1" as="geometry">
            <mxPoint x="390" y="279.5" as="sourcePoint" />
            <mxPoint x="450" y="280" as="targetPoint" />
          </mxGeometry>
        </mxCell>
        <mxCell id="qe84-1vlQVu-YHFjFX5S-61" value="extends" style="edgeLabel;html=1;align=center;verticalAlign=middle;resizable=0;points=[];" vertex="1" connectable="0" parent="1">
          <mxGeometry x="350" y="210" as="geometry" />
        </mxCell>
        <mxCell id="qe84-1vlQVu-YHFjFX5S-62" value="extends" style="edgeLabel;html=1;align=center;verticalAlign=middle;resizable=0;points=[];rotation=0;" vertex="1" connectable="0" parent="1">
          <mxGeometry x="350" y="280" as="geometry" />
        </mxCell>
        <mxCell id="qe84-1vlQVu-YHFjFX5S-63" value="extends" style="edgeLabel;html=1;align=center;verticalAlign=middle;resizable=0;points=[];rotation=0;" vertex="1" connectable="0" parent="1">
          <mxGeometry x="350" y="350" as="geometry" />
        </mxCell>
        <mxCell id="qe84-1vlQVu-YHFjFX5S-64" value="extends" style="edgeLabel;html=1;align=center;verticalAlign=middle;resizable=0;points=[];rotation=0;" vertex="1" connectable="0" parent="1">
          <mxGeometry x="350" y="420" as="geometry" />
        </mxCell>
        <mxCell id="qe84-1vlQVu-YHFjFX5S-65" value="" style="endArrow=classic;html=1;rounded=0;" edge="1" parent="1">
          <mxGeometry width="50" height="50" relative="1" as="geometry">
            <mxPoint x="160" y="209" as="sourcePoint" />
            <mxPoint x="200" y="209" as="targetPoint" />
          </mxGeometry>
        </mxCell>
        <mxCell id="qe84-1vlQVu-YHFjFX5S-66" value="" style="endArrow=classic;html=1;rounded=0;" edge="1" parent="1">
          <mxGeometry width="50" height="50" relative="1" as="geometry">
            <mxPoint x="160" y="59.5" as="sourcePoint" />
            <mxPoint x="200" y="59.5" as="targetPoint" />
          </mxGeometry>
        </mxCell>
        <mxCell id="qe84-1vlQVu-YHFjFX5S-67" value="&lt;span style=&quot;font-size: 11px;&quot;&gt;Перегляд детальної інформації публікації&lt;/span&gt;" style="ellipse;whiteSpace=wrap;html=1;" vertex="1" parent="1">
          <mxGeometry x="450" y="110" width="117.5" height="60" as="geometry" />
        </mxCell>
        <mxCell id="qe84-1vlQVu-YHFjFX5S-68" value="" style="endArrow=openThin;dashed=1;html=1;dashPattern=1 3;strokeWidth=2;rounded=0;exitX=1;exitY=0.5;exitDx=0;exitDy=0;endFill=0;entryX=0;entryY=0.5;entryDx=0;entryDy=0;" edge="1" parent="1" target="qe84-1vlQVu-YHFjFX5S-22">
          <mxGeometry width="50" height="50" relative="1" as="geometry">
            <mxPoint x="550" y="120" as="sourcePoint" />
            <mxPoint x="610" y="120.5" as="targetPoint" />
            <Array as="points">
              <mxPoint x="550" y="90" />
            </Array>
          </mxGeometry>
        </mxCell>
        <mxCell id="qe84-1vlQVu-YHFjFX5S-70" value="extends" style="edgeLabel;html=1;align=center;verticalAlign=middle;resizable=0;points=[];" vertex="1" connectable="0" parent="qe84-1vlQVu-YHFjFX5S-68">
          <mxGeometry x="0.2" y="-1" relative="1" as="geometry">
            <mxPoint as="offset" />
          </mxGeometry>
        </mxCell>
        <mxCell id="qe84-1vlQVu-YHFjFX5S-69" value="" style="endArrow=openThin;dashed=1;html=1;dashPattern=1 3;strokeWidth=2;rounded=0;exitX=1;exitY=1;exitDx=0;exitDy=0;endFill=0;entryX=0.009;entryY=0.367;entryDx=0;entryDy=0;entryPerimeter=0;" edge="1" parent="1" source="qe84-1vlQVu-YHFjFX5S-67" target="qe84-1vlQVu-YHFjFX5S-19">
          <mxGeometry width="50" height="50" relative="1" as="geometry">
            <mxPoint x="560" y="155" as="sourcePoint" />
            <mxPoint x="630" y="125" as="targetPoint" />
            <Array as="points">
              <mxPoint x="550" y="180" />
            </Array>
          </mxGeometry>
        </mxCell>
        <mxCell id="qe84-1vlQVu-YHFjFX5S-71" value="extends" style="edgeLabel;html=1;align=center;verticalAlign=middle;resizable=0;points=[];" vertex="1" connectable="0" parent="qe84-1vlQVu-YHFjFX5S-69">
          <mxGeometry x="0.1757" y="-3" relative="1" as="geometry">
            <mxPoint as="offset" />
          </mxGeometry>
        </mxCell>
        <mxCell id="qe84-1vlQVu-YHFjFX5S-72" value="" style="rounded=0;whiteSpace=wrap;html=1;fillColor=none;" vertex="1" parent="1">
          <mxGeometry x="170" y="10" width="590" height="690" as="geometry" />
        </mxCell>
      </root>
    </mxGraphModel>
  </diagram>
</mxfile>
